# Blender v2.83.0 OBJ File: ''
# www.blender.org
mtllib salz.mtl
o Cube_Cube.006
v -0.262728 -1.000000 0.262728
v -0.837126 -0.488818 4.044409
v -1.000000 -0.262728 0.262728
v -0.423545 0.992737 4.006690
v -0.262728 1.000000 0.262728
v -1.000000 0.262728 0.262728
v -0.262728 -1.000000 -0.262728
v -1.000000 -0.262728 -0.262728
v -0.262728 -0.262728 -1.000000
v -0.262728 1.000000 -0.262728
v -0.262728 0.262728 -1.000000
v -1.000000 0.262728 -0.262728
v 0.262728 -1.000000 0.262728
v 1.000000 -0.262728 0.262728
v 0.741345 -1.064188 3.884282
v 0.262728 1.000000 0.262728
v 1.175776 0.472784 3.807688
v 1.000000 0.262728 0.262728
v 0.262728 -1.000000 -0.262728
v 0.262728 -0.262728 -1.000000
v 1.000000 -0.262728 -0.262728
v 0.262728 1.000000 -0.262728
v 1.000000 0.262728 -0.262728
v 0.262728 0.262728 -1.000000
vt 0.532841 0.842159
vt 0.467159 0.907841
vt 0.467159 0.842159
vt 0.532841 0.592159
vt 0.467159 0.657841
vt 0.467159 0.592159
vt 0.782841 0.592159
vt 0.717159 0.657841
vt 0.717159 0.592159
vt 0.532841 0.092159
vt 0.467159 0.157841
vt 0.467159 0.092159
vt 0.532841 0.342159
vt 0.467159 0.407841
vt 0.467159 0.342159
vt 0.217159 0.657841
vt 0.217159 0.750000
vt 0.125000 0.657841
vt 0.532841 0.907841
vt 0.625000 0.907841
vt 0.532841 1.000000
vt 0.217159 0.592159
vt 0.125000 0.592159
vt 0.217159 0.500000
vt 0.782841 0.500000
vt 0.875000 0.592159
vt 0.282841 0.657841
vt 0.375000 0.657841
vt 0.282841 0.750000
vt 0.717159 0.750000
vt 0.625000 0.657841
vt 0.282841 0.592159
vt 0.282841 0.500000
vt 0.375000 0.592159
vt 0.625000 0.592159
vt 0.717159 0.500000
vt 0.467159 1.000000
vt 0.875000 0.657841
vt 0.782841 0.657841
vt 0.532841 0.157841
vt 0.532841 0.407841
vt 0.532841 0.657841
vt 0.782841 0.750000
vn 0.1078 0.0191 0.9940
vn 1.0000 0.0000 0.0000
vn 0.0000 1.0000 0.0000
vn -1.0000 0.0000 0.0000
vn 0.0000 0.0000 -1.0000
vn -0.7071 -0.7071 -0.0118
vn -0.7068 0.7068 -0.0290
vn -0.5774 -0.5774 -0.5774
vn -0.5774 0.5774 -0.5774
vn 0.7032 -0.7032 -0.1054
vn 0.7050 0.7050 -0.0767
vn 0.5774 -0.5774 -0.5774
vn 0.5774 0.5774 -0.5774
vn -0.7071 -0.7071 0.0000
vn -0.9991 0.0000 0.0430
vn -0.7071 0.7071 0.0000
vn -0.7071 0.0000 -0.7071
vn 0.0000 -0.7071 -0.7071
vn 0.0000 0.7071 -0.7071
vn 0.7071 0.0000 -0.7071
vn 0.7071 -0.7071 0.0000
vn 0.7071 0.7071 0.0000
vn 0.9988 0.0000 -0.0495
vn -0.3346 -0.9393 0.0761
vn 0.3153 0.9471 0.0596
vn 0.0000 -1.0000 0.0000
vn 0.1208 -0.0084 0.9926
vn -0.9582 0.2699 0.0949
vn 0.9624 -0.2716 0.0086
vn 0.0000 -0.9998 -0.0177
vn 0.0000 1.0000 0.0019
usemtl None
s off
f 17/1/1 2/2/1 15/3/1
f 23/4/2 14/5/2 21/6/2
f 10/7/3 16/8/3 22/9/3
f 6/10/4 8/11/4 3/12/4
f 11/13/5 20/14/5 9/15/5
f 1/16/6 2/17/6 3/18/6
f 4/19/7 5/20/7 6/21/7
f 7/22/8 8/23/8 9/24/8
f 10/7/9 11/25/9 12/26/9
f 13/27/10 14/28/10 15/29/10
f 16/8/11 17/30/11 18/31/11
f 19/32/12 20/33/12 21/34/12
f 22/9/13 23/35/13 24/36/13
f 1/16/14 8/23/14 7/22/14
f 2/2/15 6/21/15 3/37/15
f 10/7/16 6/38/16 5/39/16
f 9/15/17 12/40/17 11/13/17
f 7/22/18 20/33/18 19/32/18
f 22/9/19 11/25/19 10/7/19
f 21/6/20 24/41/20 23/4/20
f 19/32/21 14/5/21 13/27/21
f 16/8/22 23/4/22 22/9/22
f 17/1/23 14/5/23 18/42/23
f 1/16/24 15/29/24 2/17/24
f 16/8/25 4/43/25 17/30/25
f 19/32/26 1/16/26 7/22/26
f 17/1/27 4/19/27 2/2/27
f 23/4/2 18/42/2 14/5/2
f 10/7/3 5/39/3 16/8/3
f 6/10/4 12/40/4 8/11/4
f 11/13/5 24/41/5 20/14/5
f 1/16/14 3/18/14 8/23/14
f 2/2/28 4/19/28 6/21/28
f 10/7/16 12/26/16 6/38/16
f 9/15/17 8/11/17 12/40/17
f 7/22/18 9/24/18 20/33/18
f 22/9/19 24/36/19 11/25/19
f 21/6/20 20/14/20 24/41/20
f 19/32/21 21/6/21 14/5/21
f 16/8/22 18/42/22 23/4/22
f 17/1/29 15/3/29 14/5/29
f 1/16/30 13/27/30 15/29/30
f 16/8/31 5/39/31 4/43/31
f 19/32/26 13/27/26 1/16/26
