# Blender v2.83.0 OBJ File: 'brotkasten.blend'
# www.blender.org
mtllib brotkasten.mtl
o Cylinder
v 0.195090 -1.000000 -0.980785
v 0.382683 -1.000000 -0.923880
v 0.707107 -1.000000 -0.707107
v -0.980785 -1.000000 -0.195091
v -0.831469 -1.000000 -0.555571
v -0.707106 -1.000000 -0.707108
v -0.382682 -1.000000 -0.923880
v -0.195089 -1.000000 -0.980786
v 0.195090 -2.704690 -0.980785
v 0.382683 -2.704690 -0.923880
v 0.707107 -2.704690 -0.707107
v -0.980785 -2.704690 -0.195091
v -0.831469 -2.704690 -0.555571
v -0.707106 -2.704690 -0.707108
v -0.382682 -2.704690 -0.923880
v -0.195089 -2.704690 -0.980786
vt 0.218750 0.500000
vt 0.125000 0.500000
vt 0.031250 0.500000
vt 0.125000 0.500000
vt 0.156250 0.500000
vt 0.156250 0.500000
vt 0.218750 0.500000
vt 0.937500 0.500000
vt 0.968750 0.500000
vt 0.968750 0.500000
vt 0.031250 0.500000
vt 0.062500 0.500000
vt 0.062500 0.500000
vt 0.875000 0.500000
vt 0.937500 0.500000
vt 0.000000 0.500000
vt 0.875000 0.500000
vt 0.000000 0.500000
vn 0.0000 -1.0000 0.0000
vn -0.7730 0.0000 -0.6344
vn -0.9239 0.0000 -0.3827
vn 0.2903 0.0000 -0.9569
vn -0.2903 0.0000 -0.9569
vn -0.5556 0.0000 -0.8315
vn 0.5556 0.0000 -0.8315
vn 0.0000 0.0000 -1.0000
vn 0.0000 1.0000 -0.0000
vn 0.2903 0.0000 0.9569
usemtl None
s off
f 12/1/1 14/2/1 16/3/1
f 6/4/2 13/5/2 5/6/2
f 5/6/3 12/1/3 4/7/3
f 2/8/4 9/9/4 1/10/4
f 8/11/5 15/12/5 7/13/5
f 7/13/6 14/2/6 6/4/6
f 3/14/7 10/15/7 2/8/7
f 1/16/8 16/3/8 8/11/8
f 6/4/9 4/7/9 2/8/9
f 11/17/10 4/7/10 12/1/10
f 10/15/1 11/17/1 12/1/1
f 12/1/1 13/5/1 14/2/1
f 14/2/1 15/12/1 16/3/1
f 16/3/1 9/9/1 10/15/1
f 10/15/1 12/1/1 16/3/1
f 6/4/2 14/2/2 13/5/2
f 5/6/3 13/5/3 12/1/3
f 2/8/4 10/15/4 9/9/4
f 8/11/5 16/3/5 15/12/5
f 7/13/6 15/12/6 14/2/6
f 3/14/7 11/17/7 10/15/7
f 1/16/8 9/18/8 16/3/8
f 2/8/9 1/16/9 6/4/9
f 1/16/9 8/11/9 6/4/9
f 8/11/9 7/13/9 6/4/9
f 6/4/9 5/6/9 4/7/9
f 4/7/9 3/14/9 2/8/9
f 11/17/10 3/14/10 4/7/10
