# Blender v2.92.0 OBJ File: ''
# www.blender.org
mtllib CrazyTetraV4.mtl
o Plane
v -0.293868 0.063009 -0.462336
v 1.059996 0.224152 1.000909
v 1.155076 0.268292 -1.825575
v -0.219296 0.627981 -0.451005
v 0.893531 0.760434 0.751730
v 0.971684 0.796715 -1.571539
v 1.083494 0.814155 -1.819459
v -0.365450 0.608873 -0.456220
v 0.988414 0.770016 1.007025
v -0.021181 0.476864 -0.446700
v 0.802554 0.574909 0.443585
v 0.860403 0.601765 -1.276139
v 0.994506 0.622682 -1.573489
v -0.196475 0.453947 -0.452955
v 0.916353 0.586401 0.749780
v 0.164648 0.345655 -0.442498
v 0.714977 0.411158 0.152292
v 0.753626 0.429100 -0.996638
v 0.880451 0.448882 -1.277852
v -0.001133 0.323982 -0.448414
v 0.822602 0.422026 0.441872
v 0.347190 0.204521 -0.438562
v 0.631554 0.238368 -0.131224
v 0.651524 0.247639 -0.724894
v 0.774898 0.266883 -0.998456
v 0.185921 0.183438 -0.444316
v 0.736249 0.248940 0.150475
v 0.353676 0.155065 -0.439116
v 0.638039 0.188911 -0.131778
v 0.658009 0.198182 -0.725448
vt 1.000000 0.000000
vt 0.000000 0.000000
vt 0.000000 1.000000
vt 0.052145 0.874110
vt 0.874110 0.052145
vt 0.874110 0.052145
vt 1.000000 0.000000
vt 0.000000 0.000000
vt 0.000000 1.000000
vt 0.052145 0.052145
vt 0.114687 0.723120
vt 0.723120 0.114687
vt 0.723120 0.114687
vt 0.052145 0.052145
vt 0.052145 0.874110
vt 0.114687 0.114687
vt 0.173836 0.580323
vt 0.580323 0.173836
vt 0.580323 0.173836
vt 0.114687 0.114687
vt 0.114687 0.723120
vt 0.173836 0.173836
vt 0.231374 0.441413
vt 0.441413 0.231374
vt 0.441413 0.231374
vt 0.173836 0.173836
vt 0.173836 0.580323
vt 0.231374 0.231374
vt 0.231374 0.441413
vt 0.231374 0.231374
vn 0.1300 -0.9915 -0.0111
vn -0.9909 -0.1296 -0.0354
vn 0.9909 0.1296 0.0354
vn -0.7245 -0.1026 0.6816
vn -0.6769 -0.0806 -0.7316
vn -0.1300 0.9915 0.0111
vn 0.7245 0.1026 -0.6816
vn 0.6769 0.0806 0.7316
vn -0.1300 0.9914 0.0111
vn -0.9909 -0.1295 -0.0354
usemtl None
s off
f 2/1/1 1/2/1 3/3/1
f 6/4/2 15/5/2 5/6/2
f 3/3/3 9/7/3 2/1/3
f 2/1/4 8/8/4 1/2/4
f 1/2/5 7/9/5 3/3/5
f 6/4/6 8/8/6 4/10/6
f 5/6/6 8/8/6 9/7/6
f 6/4/6 9/7/6 7/9/6
f 12/11/2 21/12/2 11/13/2
f 5/6/7 14/14/7 4/10/7
f 4/10/8 13/15/8 6/4/8
f 6/4/2 13/15/2 15/5/2
f 3/3/3 7/9/3 9/7/3
f 2/1/4 9/7/4 8/8/4
f 1/2/5 8/8/5 7/9/5
f 6/4/6 7/9/6 8/8/6
f 5/6/9 4/10/9 8/8/9
f 6/4/9 5/6/9 9/7/9
f 5/6/7 15/5/7 14/14/7
f 4/10/8 14/14/8 13/15/8
f 12/11/6 14/14/6 10/16/6
f 11/13/9 14/14/9 15/5/9
f 11/13/6 13/15/6 12/11/6
f 18/17/2 27/18/2 17/19/2
f 11/13/7 20/20/7 10/16/7
f 10/16/8 19/21/8 12/11/8
f 12/11/2 19/21/2 21/12/2
f 12/11/9 13/15/9 14/14/9
f 11/13/6 10/16/6 14/14/6
f 11/13/9 15/5/9 13/15/9
f 11/13/7 21/12/7 20/20/7
f 10/16/8 20/20/8 19/21/8
f 18/17/9 20/20/9 16/22/9
f 17/19/6 20/20/6 21/12/6
f 17/19/9 19/21/9 18/17/9
f 24/23/2 29/24/2 23/25/2
f 17/19/7 26/26/7 16/22/7
f 16/22/8 25/27/8 18/17/8
f 18/17/2 25/27/2 27/18/2
f 18/17/9 19/21/9 20/20/9
f 17/19/6 16/22/6 20/20/6
f 17/19/9 21/12/9 19/21/9
f 17/19/7 27/18/7 26/26/7
f 16/22/8 26/26/8 25/27/8
f 24/23/9 26/26/9 22/28/9
f 23/25/9 26/26/9 27/18/9
f 24/23/9 27/18/9 25/27/9
f 29/24/9 30/29/9 28/30/9
f 23/25/7 28/30/7 22/28/7
f 22/28/8 30/29/8 24/23/8
f 24/23/10 30/29/10 29/24/10
f 24/23/6 25/27/6 26/26/6
f 23/25/9 22/28/9 26/26/9
f 24/23/6 23/25/6 27/18/6
f 23/25/7 29/24/7 28/30/7
f 22/28/8 28/30/8 30/29/8
