# Blender v2.83.0 OBJ File: 'madFace.blend'
# www.blender.org
mtllib madFace.mtl
o Cube_Cube.006
v -21.037951 -2.553413 25.149176
v -21.037951 1.788396 25.149176
v -21.037951 -2.553413 -37.541763
v -21.037951 1.788396 -37.541763
v 28.904699 -2.553413 25.149176
v 28.904699 1.788396 25.149176
v 28.904699 -2.553413 -37.541763
v 28.904699 1.788396 -37.541763
v -10.084734 1.788395 -21.922125
v -10.084734 -2.553413 -21.922125
v -1.320821 1.788395 -21.922125
v -1.320821 -2.553413 -21.922125
v -1.320821 1.788395 -13.158212
v -1.320821 -2.553413 -13.158212
v -10.084734 1.788395 -13.158212
v -10.084734 -2.553413 -13.158212
v 8.292656 1.788396 -21.649498
v 8.292656 -2.553412 -21.649496
v 9.204861 -2.553413 -21.649496
v 17.056568 1.788395 -21.649498
v 17.056568 -2.553413 -21.649498
v 17.056568 1.788395 -12.885584
v 17.056568 -2.553413 -12.885584
v 8.292655 1.788395 -20.913601
v 8.292656 -2.553413 -20.913601
v 8.292656 1.788395 -12.885584
v 8.292656 -2.553413 -12.885584
v -10.388041 1.788395 -0.541472
v -10.388041 -2.553412 -0.541472
v 17.852629 1.788395 -0.541472
v 17.852629 -2.553413 -0.541472
v 17.852629 1.788397 4.351315
v 17.852629 -2.553413 4.351315
v -10.388041 1.788395 4.351315
v -10.388041 -2.553412 4.351315
vt 0.625000 0.000000
vt 0.375000 0.250000
vt 0.375000 0.000000
vt 0.625000 0.250000
vt 0.375000 0.500000
vt 0.625000 0.500000
vt 0.375000 0.750000
vt 0.625000 0.750000
vt 0.375000 1.000000
vt 0.271821 0.563375
vt 0.223699 0.562288
vt 0.776301 0.562288
vt 0.728179 0.566310
vt 0.728179 0.563375
vt 0.604298 0.750000
vt 0.480443 0.500000
vt 0.480443 0.750000
vt 0.604298 0.500000
vt 0.480443 0.250000
vt 0.875000 0.500000
vt 0.604298 0.250000
vt 0.480443 0.000000
vt 0.604298 1.000000
vt 0.480443 1.000000
vt 0.315691 0.598324
vt 0.319676 0.647550
vt 0.548445 0.750000
vt 0.424590 0.500000
vt 0.424590 0.750000
vt 0.548445 0.250000
vt 0.424590 0.250000
vt 0.424590 0.276022
vt 0.820171 0.597237
vt 0.821689 0.647550
vt 0.548445 0.229008
vt 0.424590 0.000000
vt 0.424590 0.229008
vt 0.548445 1.000000
vt 0.424590 1.000000
vt 0.417928 0.750000
vt 0.492234 0.500000
vt 0.417928 0.500000
vt 0.417928 0.250000
vt 0.492234 0.250000
vt 0.417928 0.000000
vt 0.680324 0.667062
vt 0.875000 0.750000
vt 0.492234 1.000000
vt 0.417928 1.000000
vt 0.319676 0.667062
vt 0.125000 0.750000
vt 0.625000 1.000000
vt 0.179829 0.562288
vt 0.125000 0.500000
vt 0.276388 0.563375
vt 0.271821 0.566310
vt 0.223699 0.597237
vt 0.684309 0.563375
vt 0.820171 0.562288
vt 0.604298 0.000000
vt 0.179829 0.597237
vt 0.271822 0.598324
vt 0.178311 0.647550
vt 0.315691 0.563375
vt 0.548445 0.500000
vt 0.684309 0.598324
vt 0.728179 0.598324
vt 0.776301 0.597237
vt 0.680324 0.647550
vt 0.821689 0.667062
vt 0.548445 0.000000
vt 0.492234 0.750000
vt 0.492234 0.000000
vt 0.178311 0.667062
vn -1.0000 0.0000 0.0000
vn 0.0000 0.0000 -1.0000
vn 1.0000 0.0000 0.0000
vn 0.0000 0.0000 1.0000
vn 0.0000 -1.0000 0.0000
vn -0.0000 1.0000 0.0000
usemtl None
s off
f 2/1/1 3/2/1 1/3/1
f 4/4/2 7/5/2 3/2/2
f 8/6/3 5/7/3 7/5/3
f 6/8/4 1/9/4 5/7/4
f 7/5/5 18/10/5 12/11/5
f 11/12/6 24/13/6 17/14/6
f 13/15/1 12/16/1 14/17/1
f 11/18/4 10/19/4 12/16/4
f 11/12/6 8/6/6 4/20/6
f 9/21/3 16/22/3 10/19/3
f 15/23/2 14/17/2 16/24/2
f 23/25/5 7/5/5 31/26/5
f 22/27/1 21/28/1 23/29/1
f 17/30/4 18/31/4 19/32/4
f 15/33/6 4/20/6 28/34/6
f 24/35/3 27/36/3 25/37/3
f 26/38/2 23/29/2 27/39/2
f 33/40/1 30/41/1 31/42/1
f 30/41/4 29/43/4 31/42/4
f 28/44/3 35/45/3 29/43/3
f 6/8/6 32/46/6 2/47/6
f 34/48/2 33/40/2 35/49/2
f 33/50/5 5/7/5 1/51/5
f 2/1/1 4/4/1 3/2/1
f 4/4/2 8/6/2 7/5/2
f 8/6/3 6/8/3 5/7/3
f 6/8/4 2/52/4 1/9/4
f 10/53/5 3/54/5 12/11/5
f 3/54/5 7/5/5 12/11/5
f 7/5/5 19/55/5 18/10/5
f 18/10/5 25/56/5 12/11/5
f 25/56/5 14/57/5 12/11/5
f 20/58/6 8/6/6 17/14/6
f 8/6/6 11/12/6 17/14/6
f 13/15/1 11/18/1 12/16/1
f 11/18/4 9/21/4 10/19/4
f 4/20/6 15/33/6 9/59/6
f 9/59/6 11/12/6 4/20/6
f 9/21/3 15/60/3 16/22/3
f 15/23/2 13/15/2 14/17/2
f 3/54/5 10/53/5 16/61/5
f 14/57/5 25/56/5 27/62/5
f 1/51/5 3/54/5 29/63/5
f 3/54/5 16/61/5 29/63/5
f 16/61/5 14/57/5 29/63/5
f 14/57/5 27/62/5 29/63/5
f 5/7/5 33/50/5 31/26/5
f 31/26/5 29/63/5 27/62/5
f 7/5/5 5/7/5 31/26/5
f 21/64/5 19/55/5 7/5/5
f 31/26/5 27/62/5 23/25/5
f 23/25/5 21/64/5 7/5/5
f 22/27/1 20/65/1 21/28/1
f 19/32/4 21/28/4 20/65/4
f 20/65/4 17/30/4 19/32/4
f 8/6/6 20/58/6 22/66/6
f 26/67/6 24/13/6 13/68/6
f 24/13/6 11/12/6 13/68/6
f 6/8/6 8/6/6 30/69/6
f 8/6/6 22/66/6 30/69/6
f 2/47/6 34/70/6 28/34/6
f 28/34/6 30/69/6 26/67/6
f 30/69/6 22/66/6 26/67/6
f 26/67/6 13/68/6 28/34/6
f 13/68/6 15/33/6 28/34/6
f 4/20/6 2/47/6 28/34/6
f 25/37/3 18/31/3 24/35/3
f 18/31/3 17/30/3 24/35/3
f 24/35/3 26/71/3 27/36/3
f 26/38/2 22/27/2 23/29/2
f 33/40/1 32/72/1 30/41/1
f 30/41/4 28/44/4 29/43/4
f 28/44/3 34/73/3 35/45/3
f 6/8/6 30/69/6 32/46/6
f 32/46/6 34/70/6 2/47/6
f 34/48/2 32/72/2 33/40/2
f 1/51/5 29/63/5 35/74/5
f 35/74/5 33/50/5 1/51/5
