# Blender v2.83.0 OBJ File: 'zweiKugeln.blend'
# www.blender.org
mtllib zweiKugeln.mtl
o Cube_Cube.003
v -0.322080 -1.000000 0.322080
v -0.322080 -0.322080 1.000000
v -1.000000 -0.322080 0.322080
v -0.322080 0.322080 1.000000
v -0.322080 1.000000 0.322080
v -1.000000 0.322080 0.322080
v -0.322080 -1.000000 -0.322080
v -1.000000 -0.322080 -0.322080
v -0.322080 -0.322080 -1.000000
v -0.322080 1.000000 -0.322080
v -0.322080 0.322080 -1.000000
v -1.000000 0.322080 -0.322080
v 0.322080 -1.000000 0.322080
v 1.000000 -0.322080 0.322080
v 0.322080 -0.322080 1.000000
v 0.322080 1.000000 0.322080
v 0.322080 0.322080 1.000000
v 1.000000 0.322080 0.322080
v 0.322080 -1.000000 -0.322080
v 0.322080 -0.322080 -1.000000
v 1.000000 -0.322080 -0.322080
v 0.322080 1.000000 -0.322080
v 1.000000 0.322080 -0.322080
v 0.322080 0.322080 -1.000000
vt 0.540260 0.834740
vt 0.459740 0.915260
vt 0.459740 0.834740
vt 0.540260 0.584740
vt 0.459740 0.665260
vt 0.459740 0.584740
vt 0.540260 0.915260
vt 0.790260 0.584740
vt 0.709740 0.665260
vt 0.709740 0.584740
vt 0.540260 0.084740
vt 0.459740 0.165260
vt 0.459740 0.084740
vt 0.540260 0.334740
vt 0.459740 0.415260
vt 0.459740 0.334740
vt 0.209740 0.665260
vt 0.209740 0.750000
vt 0.125000 0.665260
vt 0.625000 0.915260
vt 0.540260 1.000000
vt 0.209740 0.584740
vt 0.125000 0.584740
vt 0.209740 0.500000
vt 0.790260 0.500000
vt 0.875000 0.584740
vt 0.290260 0.665260
vt 0.375000 0.665260
vt 0.290260 0.750000
vt 0.709740 0.750000
vt 0.625000 0.665260
vt 0.290260 0.584740
vt 0.290260 0.500000
vt 0.375000 0.584740
vt 0.625000 0.584740
vt 0.709740 0.500000
vt 0.459740 1.000000
vt 0.875000 0.665260
vt 0.790260 0.665260
vt 0.540260 0.165260
vt 0.540260 0.415260
vt 0.540260 0.665260
vt 0.790260 0.750000
vn 0.0000 0.0000 1.0000
vn 1.0000 0.0000 0.0000
vn 0.0000 1.0000 0.0000
vn -1.0000 0.0000 0.0000
vn 0.0000 0.0000 -1.0000
vn -0.5774 -0.5774 0.5774
vn -0.5774 0.5774 0.5774
vn -0.5774 -0.5774 -0.5774
vn -0.5774 0.5774 -0.5774
vn 0.5774 -0.5774 0.5774
vn 0.5774 0.5774 0.5774
vn 0.5774 -0.5774 -0.5774
vn 0.5774 0.5774 -0.5774
vn -0.7071 -0.7071 0.0000
vn -0.7071 0.0000 0.7071
vn -0.7071 0.7071 0.0000
vn -0.7071 0.0000 -0.7071
vn 0.0000 -0.7071 -0.7071
vn 0.0000 0.7071 -0.7071
vn 0.7071 0.0000 -0.7071
vn 0.7071 -0.7071 0.0000
vn 0.7071 0.7071 0.0000
vn 0.7071 0.0000 0.7071
vn 0.0000 -0.7071 0.7071
vn 0.0000 0.7071 0.7071
vn 0.0000 -1.0000 0.0000
usemtl None
s off
f 17/1/1 2/2/1 15/3/1
f 23/4/2 14/5/2 21/6/2
f 17/1/1 4/7/1 2/2/1
f 10/8/3 16/9/3 22/10/3
f 6/11/4 8/12/4 3/13/4
f 11/14/5 20/15/5 9/16/5
f 1/17/6 2/18/6 3/19/6
f 4/7/7 5/20/7 6/21/7
f 7/22/8 8/23/8 9/24/8
f 10/8/9 11/25/9 12/26/9
f 13/27/10 14/28/10 15/29/10
f 16/9/11 17/30/11 18/31/11
f 19/32/12 20/33/12 21/34/12
f 22/10/13 23/35/13 24/36/13
f 1/17/14 8/23/14 7/22/14
f 4/7/15 3/37/15 2/2/15
f 10/8/16 6/38/16 5/39/16
f 9/16/17 12/40/17 11/14/17
f 7/22/18 20/33/18 19/32/18
f 22/10/19 11/25/19 10/8/19
f 21/6/20 24/41/20 23/4/20
f 19/32/21 14/5/21 13/27/21
f 16/9/22 23/4/22 22/10/22
f 15/3/23 18/42/23 17/1/23
f 13/27/24 2/18/24 1/17/24
f 5/39/25 17/30/25 16/9/25
f 19/32/26 1/17/26 7/22/26
f 23/4/2 18/42/2 14/5/2
f 10/8/3 5/39/3 16/9/3
f 6/11/4 12/40/4 8/12/4
f 11/14/5 24/41/5 20/15/5
f 1/17/14 3/19/14 8/23/14
f 4/7/15 6/21/15 3/37/15
f 10/8/16 12/26/16 6/38/16
f 9/16/17 8/12/17 12/40/17
f 7/22/18 9/24/18 20/33/18
f 22/10/19 24/36/19 11/25/19
f 21/6/20 20/15/20 24/41/20
f 19/32/21 21/6/21 14/5/21
f 16/9/22 18/42/22 23/4/22
f 15/3/23 14/5/23 18/42/23
f 13/27/24 15/29/24 2/18/24
f 5/39/25 4/43/25 17/30/25
f 19/32/26 13/27/26 1/17/26
o Cube.001_Cube.004
v 0.895188 -0.321157 -3.348666
v 0.895188 0.294990 -2.732519
v 0.279041 0.294990 -3.348666
v 0.895188 1.062696 -2.732519
v 0.895188 1.678843 -3.348666
v 0.279041 1.062696 -3.348666
v 0.895188 -0.321157 -4.116372
v 0.279041 0.294990 -4.116372
v 0.895188 0.294990 -4.732519
v 0.895188 1.678843 -4.116372
v 0.895188 1.062696 -4.732519
v 0.279041 1.062696 -4.116372
v 1.662894 -0.321157 -3.348666
v 2.279041 0.294990 -3.348666
v 1.662894 0.294990 -2.732519
v 1.662894 1.678843 -3.348666
v 1.662894 1.062696 -2.732519
v 2.279041 1.062696 -3.348666
v 1.662894 -0.321157 -4.116372
v 1.662894 0.294990 -4.732519
v 2.279041 0.294990 -4.116372
v 1.662894 1.678843 -4.116372
v 2.279041 1.062696 -4.116372
v 1.662894 1.062696 -4.732519
vt 0.547982 0.827018
vt 0.452018 0.922982
vt 0.452018 0.827018
vt 0.547982 0.577018
vt 0.452018 0.672982
vt 0.452018 0.577018
vt 0.547982 0.922982
vt 0.797982 0.577018
vt 0.702018 0.672982
vt 0.702018 0.577018
vt 0.547982 0.077018
vt 0.452018 0.172982
vt 0.452018 0.077018
vt 0.547982 0.327018
vt 0.452018 0.422982
vt 0.452018 0.327018
vt 0.202018 0.672982
vt 0.202018 0.750000
vt 0.125000 0.672982
vt 0.625000 0.922982
vt 0.547982 1.000000
vt 0.202018 0.577018
vt 0.125000 0.577018
vt 0.202018 0.500000
vt 0.797982 0.500000
vt 0.875000 0.577018
vt 0.297982 0.672982
vt 0.375000 0.672982
vt 0.297982 0.750000
vt 0.702018 0.750000
vt 0.625000 0.672982
vt 0.297982 0.577018
vt 0.297982 0.500000
vt 0.375000 0.577018
vt 0.625000 0.577018
vt 0.702018 0.500000
vt 0.452018 1.000000
vt 0.875000 0.672982
vt 0.797982 0.672982
vt 0.547982 0.172982
vt 0.547982 0.422982
vt 0.547982 0.672982
vt 0.797982 0.750000
vn 0.0000 0.0000 1.0000
vn 1.0000 0.0000 0.0000
vn 0.0000 1.0000 0.0000
vn -1.0000 0.0000 0.0000
vn 0.0000 0.0000 -1.0000
vn -0.5774 -0.5774 0.5774
vn -0.5774 0.5774 0.5774
vn -0.5774 -0.5774 -0.5774
vn -0.5774 0.5774 -0.5774
vn 0.5774 -0.5774 0.5774
vn 0.5774 0.5774 0.5774
vn 0.5774 -0.5774 -0.5774
vn 0.5774 0.5774 -0.5774
vn -0.7071 -0.7071 0.0000
vn -0.7071 0.0000 0.7071
vn -0.7071 0.7071 0.0000
vn -0.7071 0.0000 -0.7071
vn 0.0000 -0.7071 -0.7071
vn 0.0000 0.7071 -0.7071
vn 0.7071 0.0000 -0.7071
vn 0.7071 -0.7071 0.0000
vn 0.7071 0.7071 0.0000
vn 0.7071 0.0000 0.7071
vn 0.0000 -0.7071 0.7071
vn 0.0000 0.7071 0.7071
vn 0.0000 -1.0000 0.0000
usemtl None
s off
f 41/44/27 26/45/27 39/46/27
f 47/47/28 38/48/28 45/49/28
f 41/44/27 28/50/27 26/45/27
f 34/51/29 40/52/29 46/53/29
f 30/54/30 32/55/30 27/56/30
f 35/57/31 44/58/31 33/59/31
f 25/60/32 26/61/32 27/62/32
f 28/50/33 29/63/33 30/64/33
f 31/65/34 32/66/34 33/67/34
f 34/51/35 35/68/35 36/69/35
f 37/70/36 38/71/36 39/72/36
f 40/52/37 41/73/37 42/74/37
f 43/75/38 44/76/38 45/77/38
f 46/53/39 47/78/39 48/79/39
f 25/60/40 32/66/40 31/65/40
f 28/50/41 27/80/41 26/45/41
f 34/51/42 30/81/42 29/82/42
f 33/59/43 36/83/43 35/57/43
f 31/65/44 44/76/44 43/75/44
f 46/53/45 35/68/45 34/51/45
f 45/49/46 48/84/46 47/47/46
f 43/75/47 38/48/47 37/70/47
f 40/52/48 47/47/48 46/53/48
f 39/46/49 42/85/49 41/44/49
f 37/70/50 26/61/50 25/60/50
f 29/82/51 41/73/51 40/52/51
f 43/75/52 25/60/52 31/65/52
f 47/47/28 42/85/28 38/48/28
f 34/51/29 29/82/29 40/52/29
f 30/54/30 36/83/30 32/55/30
f 35/57/31 48/84/31 44/58/31
f 25/60/40 27/62/40 32/66/40
f 28/50/41 30/64/41 27/80/41
f 34/51/42 36/69/42 30/81/42
f 33/59/43 32/55/43 36/83/43
f 31/65/44 33/67/44 44/76/44
f 46/53/45 48/79/45 35/68/45
f 45/49/46 44/58/46 48/84/46
f 43/75/47 45/49/47 38/48/47
f 40/52/48 42/85/48 47/47/48
f 39/46/49 38/48/49 42/85/49
f 37/70/50 39/72/50 26/61/50
f 29/82/51 28/86/51 41/73/51
f 43/75/52 37/70/52 25/60/52
